<svg viewBox="0 0 100 500" xmlns="http://www.w3.org/2000/svg"><g fill-rule="nonzero" fill="none"><path d="M99.123 91.404L75.458 67.739a2.314 2.314 0 00-1.657-.682h-2.573c6.14-7.115 9.864-16.375 9.864-26.511C81.092 18.148 62.943 0 40.546 0 18.148 0 0 18.148 0 40.546c0 22.397 18.148 40.546 40.546 40.546 10.136 0 19.396-3.724 26.51-9.864v2.573c0 .624.254 1.209.683 1.657l23.665 23.665a2.341 2.341 0 003.313 0l4.406-4.406a2.341 2.341 0 000-3.313zm-58.577-19.67c-17.232 0-31.19-13.956-31.19-31.188s13.958-31.19 31.19-31.19 31.189 13.958 31.189 31.19-13.957 31.189-31.19 31.189z" fill="#C9C8CD"/><path d="M99.123 491.404l-23.665-23.665a2.314 2.314 0 00-1.657-.682h-2.573c6.14-7.115 9.864-16.375 9.864-26.511 0-22.398-18.149-40.546-40.546-40.546C18.148 400 0 418.148 0 440.546c0 22.397 18.148 40.546 40.546 40.546 10.136 0 19.396-3.724 26.51-9.864v2.573c0 .624.254 1.209.683 1.657l23.665 23.665a2.341 2.341 0 003.313 0l4.406-4.406a2.341 2.341 0 000-3.313zm-58.577-19.67c-17.232 0-31.19-13.956-31.19-31.188s13.958-31.19 31.19-31.19 31.189 13.958 31.189 31.19-13.957 31.189-31.19 31.189z" fill="#FFF"/></g></svg>
